<?xml version="1.0" encoding="UTF-8" standalone="no"?>
<svg
   xmlns:osb="http://www.openswatchbook.org/uri/2009/osb"
   xmlns:dc="http://purl.org/dc/elements/1.1/"
   xmlns:cc="http://creativecommons.org/ns#"
   xmlns:rdf="http://www.w3.org/1999/02/22-rdf-syntax-ns#"
   xmlns:svg="http://www.w3.org/2000/svg"
   xmlns="http://www.w3.org/2000/svg"
   xmlns:sodipodi="http://sodipodi.sourceforge.net/DTD/sodipodi-0.dtd"
   xmlns:inkscape="http://www.inkscape.org/namespaces/inkscape"
   sodipodi:docname="logo.svg"
   inkscape:version="1.0 (4035a4fb49, 2020-05-01)"
   id="svg8"
   version="1.1"
   viewBox="0 0 68.875116 33.781994"
   height="255.35995"
   width="520.6308">
  <defs
     id="defs2">
    <linearGradient
       osb:paint="solid"
       id="linearGradient3086">
      <stop
         id="stop3084"
         offset="0"
         style="stop-color:#a0c3ff;stop-opacity:1;" />
    </linearGradient>
    <linearGradient
       osb:paint="solid"
       id="linearGradient3078">
      <stop
         id="stop3076"
         offset="0"
         style="stop-color:#a047ff;stop-opacity:1;" />
    </linearGradient>
    <rect
       id="rect60"
       height="26.269344"
       width="34.206844"
       y="239.8259"
       x="156.29315" />
    <clipPath
       clipPathUnits="userSpaceOnUse"
       id="clipPath30">
      <path
         d="M 0,600 H 595 V 0 H 0 Z"
         id="path28" />
    </clipPath>
    <clipPath
       id="clipPath78"
       clipPathUnits="userSpaceOnUse">
      <g
         inkscape:label="Clip"
         id="use80">
        <g
           id="g104"
           clip-path="url(#clipPath30)"
           transform="matrix(0.24616164,0,0,-0.27043988,165.76262,266.41844)">
          <g
             id="g98"
             transform="translate(374.3379,170.6953)">
            <path
               d="m 0,0 c 1.428,-13.292 -4.872,-25.21 8.231,-35.327 19.65,-15.172 26.952,-35.138 25.899,-58.308 -0.247,-5.437 -0.59,-10.844 -0.602,-16.051 -0.032,-14.63 2.452,-26.756 17.785,-33.351 3.359,-1.444 3.883,-4.609 1.168,-7.06 -13.873,-12.519 -44.235,2.526 -53.773,25.528 -8.515,20.537 9.199,47.477 -21.703,56.623 -13.679,4.049 -21.563,13.417 -27.977,25.053 l -25.75,-112.993 c -1.259,-5.525 -9.547,-3.636 -8.288,1.889 l 1.564,6.859 -0.068,0.272 -29.023,130.127 -0.9,-0.767 c -17.104,-14.724 -11.65,-16.231 -13.953,-37.609 -2.761,-25.624 -11.3,-40.552 -30.346,-55.309 -17.161,-13.297 -26.489,-24.978 -25.137,-49.029 1.138,-20.217 -41.238,24.046 -12.503,66.157 6.086,8.921 14.452,16.25 20.162,25.335 10.759,17.118 -10.445,31.264 -4.894,58.811 l -89.282,-63.996 c -4.463,-3.199 -8.819,0.631 -6.219,5.467 l 61.803,114.932 c -16.793,-8.482 -21.454,1.625 -32.806,-14.552 -17.923,-25.54 -28.572,-29.186 -58.787,-24.538 -16.86,2.594 -30.273,3.504 -37.739,-16.351 -1.7,-4.52 -6.069,-4.587 -7.908,-0.122 -9.767,23.722 6.561,54.119 35.93,54.119 25.419,0 29.414,0.282 36.241,19.662 4.879,13.849 16.233,24.51 32.596,29.641 -46.328,8.387 -107.662,20.528 -107.662,20.528 -5.371,1.062 -5.582,6.81 -0.305,8.265 l 131.486,36.273 -0.483,0.543 c -22.983,25.701 -37.245,5.617 -65.654,18.729 -23.729,10.951 -24.996,25.168 -37.537,44.55 -6.616,10.225 -19.294,8.772 -27.508,3.068 -4.361,-3.029 -8.454,0.345 -6.313,5.204 7.199,16.337 27.332,29.478 48.963,15.345 19.132,-12.499 19.282,-33.425 49.629,-27.634 17.411,3.323 29.992,6.394 42.58,2.876 l -60.126,95.18 c -2.938,4.652 1.18,8.79 5.846,5.874 l 115.717,-72.324 c 7.764,34.153 -40.73,26.919 -37.029,82.359 1.636,24.514 12.195,51.83 -20.859,61.274 -17.199,4.914 22.012,24.333 48.992,-9.514 14.143,-17.744 6.495,-51.039 17.354,-59.849 9.584,-7.776 21.728,-11.384 31.527,-18.831 5.583,-4.242 10.111,-9.523 12.776,-16.765 4.929,31.955 13.941,87.125 21.657,116.621 1.319,5.04 6.386,5.252 8.12,0.339 7.444,-21.093 27.688,-105.616 34.561,-134.619 17.08,10.913 18.5,20.347 15.958,42.98 -3.053,27.164 8.616,43.363 33.166,56.943 21.445,11.864 24.16,19.764 14.593,44.498 -1.778,4.599 1.614,7.604 5.964,5.284 C 49.867,411.25 59.328,377.84 45.003,359.217 35.285,346.584 17.848,335.345 21.79,316.949 c 5.441,-25.398 9.572,-38.75 -0.959,-55.707 26.232,18.407 69.702,48.828 92.165,64.083 4.62,3.137 8.99,-1.137 5.956,-5.825 C 107.288,301.474 61.067,227.653 47.347,205.725 l 0.787,-0.114 c 27.387,-3.86 24.576,2.561 41.962,19.803 11.17,11.076 27.633,20.968 61.084,18.634 27.541,-1.921 30.092,0.644 39.574,16.221 2.698,4.433 7.577,3.214 7.873,-1.968 1.622,-28.386 -11.508,-49.492 -48.743,-49.492 -24.201,0 -27.033,-11.908 -36.485,-29.971 -2.844,-5.436 -12.68,-18.165 -28.655,-24.653 24.73,-5.67 72.204,-16.525 105.567,-23.978 5.368,-1.2 5.398,-7.032 0.042,-8.286 C 143.681,110.993 93.029,98.969 69.916,93.471 82.513,85.5 84.247,67.13 106.615,68.55 c 26.007,1.651 49.622,-6.262 57.319,-30.452 6.387,-20.075 14.126,-26.415 37.859,-21.623 5.189,1.047 7.608,-3.628 3.756,-7.259 -23.283,-21.945 -49.273,-19.356 -64.091,0.828 -28.445,38.745 -41.116,0.883 -80.047,10.743 19.544,-29.514 46.881,-70.981 57.329,-87.728 2.901,-4.651 -1.166,-8.743 -5.834,-5.87 C 67.113,-44.631 18.872,-12.625 0,0"
               style="fill:#231f20;fill-opacity:1;fill-rule:nonzero;stroke:none"
               id="path96" />
          </g>
          <g
             id="g102"
             transform="translate(225.2295,421.4199)">
            <path
               d="m 0,0 c 6.363,3.667 13.039,6.854 19.977,9.512 -1.043,46.366 -53.069,27.386 -49.478,81.255 0.839,12.599 2.583,21.676 -0.433,34.435 -0.843,3.568 4.509,4.833 5.353,1.265 3.161,-13.375 1.447,-22.876 0.567,-36.066 -3.3,-49.514 47.187,-30.786 49.43,-78.933 4.047,1.362 8.176,2.546 12.378,3.543 6.101,49.563 -42.779,34.635 -51.138,67.333 -3.71,14.512 -1.373,35.594 -10.737,47.341 -7.85,9.848 -16.208,13.965 -23.724,15.343 33.33,-25.086 -10.223,-71.076 25.6,-102.499 C -7.521,29.648 4.371,20.537 0,0 m -30.097,-23.22 c 5.743,5.809 11.986,11.124 18.658,15.874 l -95.012,59.383 z m -16.124,-19.507 c 3.75,5.462 7.873,10.648 12.333,15.521 l -70.09,69.082 48.607,-76.945 c 2.942,-2.089 5.975,-4.619 9.15,-7.658 M -58.616,-64.77 c 2.285,5.081 4.86,10.002 7.705,14.744 -39.45,38.69 -67.063,-13.872 -101.135,25.005 l -1.149,1.327 c 1.008,-10.667 9.612,-33.242 49.227,-26.511 22.389,3.804 31.739,-1.617 45.352,-14.565 m -7.562,-21.217 c 1.449,5.403 3.211,10.677 5.263,15.803 -13.15,12.764 -20.816,18.178 -42.132,14.557 -49.825,-8.466 -57.942,27.079 -55.321,37.897 -2.547,2.795 -5.264,5.415 -8.464,7.506 -10.782,7.044 -21.103,5.212 -28.431,-0.817 32.667,4.787 26.48,-37.49 59.036,-52.516 28.791,-13.288 44.669,9.206 70.049,-22.43 m 10.28,-100.525 c -2.123,4.206 -4.042,8.533 -5.745,12.968 -8.822,-8.466 -20.608,-4.471 -30.988,-9.131 -11.789,-5.293 -16.553,-24.312 -26.416,-32.144 -9.026,-7.167 -21.163,-12.363 -40.036,-11.846 -10.714,0.294 -15.39,0.965 -24.723,-4.837 -3.114,-1.935 -6.017,2.735 -2.903,4.672 10.523,6.541 16.31,5.976 27.777,5.663 15.918,-0.436 32.709,3.409 41.974,17.188 9.087,13.512 13.205,26.199 31.532,28.89 7.708,1.132 16.355,0.535 21.673,7.429 -0.723,2.166 -1.395,4.355 -2.015,6.567 -31.109,2.658 -50.036,-10.11 -55.981,-26.985 -8.673,-24.62 -17.677,-25.338 -44.258,-25.338 -18.452,0 -30.616,-15.69 -30.288,-31.663 23.099,31.616 59.965,-11.688 87.196,25.338 6.083,8.271 11.842,19.971 23.893,19.825 10.392,-0.127 22.182,5.489 29.308,13.404 m 88.623,-72.778 c -6.977,1.933 -13.738,4.386 -20.238,7.315 -29.935,-34.759 6.723,-58.673 -28.024,-94.359 -7.232,-7.428 -15.373,-14.523 -18.056,-25.014 -0.909,-3.551 -6.238,-2.189 -5.329,1.364 3.036,11.866 11.334,19.157 19.444,27.487 32.363,33.237 -3.307,56.725 26.824,92.965 -4.588,2.295 -9.034,4.832 -13.322,7.594 l -13.42,-9.62 c -0.083,-0.262 -0.192,-0.53 -0.332,-0.8 0,0 -0.53,-1.054 -1.191,-2.925 -12.084,-34.191 22.197,-43.715 -2.465,-74.06 -5.288,-6.507 -11.12,-12.517 -15.863,-19.469 -12.455,-18.252 -9.531,-36.078 -2.646,-48.763 3.037,25.215 17.029,33.721 34.061,47.885 29.818,24.795 16.971,63.967 25.959,75.62 0.992,1.285 8.122,9.819 14.598,14.78 m 33.065,-5.045 c -7.407,0.248 -14.669,1.064 -21.745,2.407 l 23.424,-105.019 z m 30.826,2.3 c -8.215,-1.524 -16.678,-2.339 -25.324,-2.379 l 1.66,-101.46 z m 42.93,15.495 c -4.555,-2.543 -9.266,-4.842 -14.113,-6.878 -2.443,-7.373 -3.086,-26.49 10.616,-38.424 18.296,-15.935 34.424,-21.336 30.917,-51.424 -1.215,-10.424 -6.612,-25.331 3.026,-33.278 2.829,-2.333 -0.67,-6.576 -3.499,-4.244 -20.296,16.735 9.602,46.401 -14.85,69.335 -5.975,5.603 -13.017,10.072 -19.206,15.464 -13.725,11.953 -15.04,29.764 -13.233,40.127 -4.373,-1.597 -8.847,-2.985 -13.41,-4.151 l -4.697,-20.613 c 6.298,-13.345 12.873,-25.586 27.428,-29.895 15.746,-4.66 25.709,-16.059 25.592,-33.642 -0.061,-9.366 -2.186,-18.86 1.551,-27.875 6.829,-16.471 22.56,-24.306 32.682,-24.554 -11.936,8.989 -14.244,22.37 -14.213,36.201 0.06,27.197 3.602,47.849 -21.991,67.611 -21.228,16.39 -6.285,29.784 -12.6,46.24 m 26.951,19.514 c -5.378,-4.951 -11.141,-9.49 -17.237,-13.568 11.784,-7.914 50.568,-33.822 92.149,-60.071 z m 18.318,20.454 c -4.348,-5.917 -9.145,-11.485 -14.341,-16.651 l 72.121,-70.895 c -14.831,22.738 -33.85,51.486 -46.598,70.707 -0.784,0.655 -1.246,1.411 -1.449,2.185 z m 12.608,20.638 c -2.247,-4.503 -4.727,-8.87 -7.423,-13.085 1.869,-2.808 6.312,-9.49 12.217,-18.391 0.384,-0.247 0.9,-0.562 1.545,-0.913 36.466,-19.938 58.921,29.984 93.656,-17.327 9.014,-12.277 23.511,-16.887 39.276,-8.558 -6.794,0.187 -11.814,1.719 -15.701,4.155 -12.523,-7.103 -27.904,23.752 -36.15,29.937 -18.149,13.611 -48.59,-2.587 -72.114,11.595 -5.705,3.439 -10.558,7.972 -15.306,12.587 m 9.264,23.735 c -1.836,-6.354 -4.106,-12.524 -6.775,-18.477 28.457,-27.526 30.295,-15.492 67.283,-18.31 23.263,-1.773 26.221,-12.522 38.959,-28.128 1.55,-1.9 5.703,-7.338 9.474,-8.312 -13.929,16.009 -8.983,47.967 -59.366,44.769 -32.985,-2.094 -30.198,27.309 -49.575,28.458 m 5.405,32.819 c -0.334,-7.294 -1.22,-14.443 -2.616,-21.409 14.045,3.345 54.497,12.964 97.345,23.052 -28.846,-0.491 -81.768,-1.394 -94.729,-1.643 m -1.609,28.972 c 1.159,-7.29 1.759,-14.766 1.759,-22.383 l -0.004,-1.085 c 13.636,0.261 67.699,1.183 95.991,1.664 -43.632,9.871 -92.689,21.154 -92.689,21.154 -0.546,0.126 -1.019,0.32 -1.424,0.566 -1.191,-0.011 -2.401,0.016 -3.633,0.084 m -16.476,47.186 c 2.75,-4.867 5.22,-9.913 7.389,-15.116 8.58,-4.642 29.978,-2.757 39.736,13.582 19.805,33.162 28.521,30.064 62.081,32.334 6.439,0.435 11.249,1.106 15.382,3.005 3.331,1.531 5.628,-3.467 2.296,-4.998 -10.608,-4.874 -29.093,-3.843 -40.826,-5.232 -17.625,-2.087 -23.525,-10.036 -34.211,-27.929 -9.766,-16.351 -29.465,-20.57 -41.832,-17.551 1.929,-5.399 3.54,-10.951 4.81,-16.63 26.404,-2.597 42.788,17.395 46.145,23.811 10.963,20.953 15.569,34.53 44.015,34.53 25.161,0 36.585,10.286 39.563,26.546 -20.082,-21.458 -61.155,7.466 -93.366,-24.477 -19.187,-19.028 -18.179,-26.546 -49.133,-22.184 -0.723,0.102 -1.407,0.206 -2.049,0.309 m -18.822,25.949 c 4.517,-4.943 8.689,-10.207 12.477,-15.755 7.774,12.424 33.884,54.143 53.334,85.009 z m -19.27,17.55 c 5.483,-4.143 10.656,-8.676 15.477,-13.557 l 69.047,72.66 C 208.165,27.008 166.806,-2.063 155.915,-9.723 m -21.268,13.29 c 4.173,-2.118 8.227,-4.438 12.15,-6.945 49.305,47.026 -7.263,63.037 26.488,101.198 4.688,5.299 9.766,10.236 14.089,15.855 5.361,6.971 6.254,17.399 3.69,27.187 -1.628,-17.477 -19.752,-34.138 -30.606,-45.718 -7.313,-7.803 -9.625,-13.849 -10.028,-25.041 -0.309,-8.57 0.691,-18.789 1.556,-31.33 0.915,-13.27 -9.267,-28.79 -17.339,-35.206 m -24.013,9.535 c 6.281,-1.847 12.382,-4.117 18.266,-6.778 6.065,2.891 18.495,19.08 17.599,32.071 -1.509,21.877 -6.402,43.068 9.946,60.51 8.533,9.103 23.723,22.97 27.996,37.172 -9.105,-26.126 -56.815,-22.743 -51.475,-70.268 2.425,-21.577 3.572,-36.704 -22.355,-52.611 z m -34.392,5.622 c 7.813,-0.305 15.463,-1.243 22.901,-2.764 0.367,0.522 0.888,0.992 1.586,1.367 -4.112,18.017 -15.37,65.403 -24.487,100.319 z m -5.624,0.11 0.125,119.22 -0.238,0.842 C 61.436,97.752 51.766,33.003 49.462,17.265 c 6.902,1.033 13.966,1.569 21.156,1.569 m 0,-7.5 c -26.546,0 -51.289,-7.711 -72.114,-21.016 -0.471,-0.491 -1.047,-0.878 -1.692,-1.099 -36.343,-23.994 -60.319,-65.202 -60.319,-112.01 0,-22.079 5.334,-42.912 14.785,-61.28 0.942,-0.688 1.588,-1.785 1.648,-3.102 30.187,-52.129 73.636,-69.229 117.692,-69.743 44.056,-0.514 86.759,23.253 110.903,58.668 0.194,0.429 0.462,0.822 0.786,1.167 14.174,21.268 22.435,46.814 22.435,74.29 0,74.076 -60.049,134.125 -134.124,134.125 m -175.63,-307.724 c 23.198,26.367 60.322,66.772 70.608,78.579 -6.168,6.814 -11.682,14.229 -16.443,22.149 z m 74.395,74.556 c -10.61,-12.13 -46.082,-50.758 -69.041,-76.796 l 86.249,61.821 c -6.133,4.528 -11.887,9.538 -17.208,14.975 m -144.359,94.518 103.978,2.827 -0.009,1.698 c 0,8.443 0.738,16.713 2.154,24.75 z m 104.148,-2.671 -101.658,-2.763 c 30.634,-5.941 76.997,-14.785 104.511,-19.335 -1.509,7.181 -2.476,14.562 -2.853,22.098"
               style="fill:#eeda8c;fill-opacity:1;fill-rule:evenodd;stroke:none"
               id="path100" />
          </g>
        </g>
        <rect
           y="92.982147"
           x="237.36905"
           height="167.06548"
           width="93.738091"
           id="rect106"
           style="fill:#0000ff;fill-rule:evenodd;stroke-width:0.264583" />
      </g>
    </clipPath>
    <clipPath
       clipPathUnits="userSpaceOnUse"
       id="clipPath140">
      <path
         d="M 0,600 H 595 V 0 H 0 Z"
         id="path138" />
    </clipPath>
    <clipPath
       id="clipPath187"
       clipPathUnits="userSpaceOnUse">
      <rect
         transform="scale(1,-1)"
         y="-643.7951"
         x="295.17334"
         height="719.51202"
         width="362.03879"
         id="rect189"
         style="fill:#0000ff;fill-rule:evenodd;stroke-width:2.39869" />
    </clipPath>
  </defs>
  <sodipodi:namedview
     scale-x="0.5"
     inkscape:window-maximized="1"
     inkscape:window-y="1072"
     inkscape:window-x="-8"
     inkscape:window-height="1027"
     inkscape:window-width="1920"
     fit-margin-bottom="12"
     fit-margin-right="12"
     fit-margin-left="12"
     fit-margin-top="12"
     units="px"
     showgrid="false"
     inkscape:document-rotation="0"
     inkscape:current-layer="layer1"
     inkscape:document-units="mm"
     inkscape:cy="101.68064"
     inkscape:cx="348.93032"
     inkscape:zoom="1.4"
     inkscape:pageshadow="2"
     inkscape:pageopacity="0.0"
     borderopacity="1.0"
     bordercolor="#666666"
     pagecolor="#ffffff"
     id="base" />
  <metadata
     id="metadata5">
    <rdf:RDF>
      <cc:Work
         rdf:about="">
        <dc:format>image/svg+xml</dc:format>
        <dc:type
           rdf:resource="http://purl.org/dc/dcmitype/StillImage" />
        <dc:title></dc:title>
        <dc:contributor>
          <cc:Agent>
            <dc:title>Sun vector illustration from: https://www.123freevectors.com/sun-vector-illustrator/</dc:title>
          </cc:Agent>
        </dc:contributor>
      </cc:Work>
    </rdf:RDF>
  </metadata>
  <g
     transform="translate(-67.864972,-168.88747)"
     id="layer1"
     inkscape:groupmode="layer"
     inkscape:label="Layer 1">
    <text
       style="font-style:normal;font-weight:normal;font-size:10.5833px;line-height:1.25;font-family:sans-serif;white-space:pre;shape-inside:url(#rect60);fill:#000000;fill-opacity:1;stroke:none;"
       id="text58"
       xml:space="preserve" />
    <g
       clip-path="url(#clipPath78)"
       id="g76" />
    <g
       style="fill:#000000;fill-opacity:1;stroke:#ffffff;stroke-width:1.80716;stroke-linecap:butt;stroke-linejoin:round;stroke-miterlimit:4;stroke-dasharray:none;stroke-dashoffset:0;stroke-opacity:1"
       id="g136"
       clip-path="url(#clipPath187)"
       transform="matrix(0.08491238,0,0,-0.05192787,85.67635,201.3565)">
      <g
         style="fill:#000000;fill-opacity:1;stroke:#ffffff;stroke-width:1.80716;stroke-linecap:butt;stroke-linejoin:round;stroke-miterlimit:4;stroke-dasharray:none;stroke-dashoffset:0;stroke-opacity:1"
         id="g142"
         transform="translate(374.3379,170.6953)">
        <path
           d="m 0,0 c 1.428,-13.292 -4.872,-25.21 8.231,-35.327 19.65,-15.172 26.952,-35.138 25.899,-58.308 -0.247,-5.437 -0.59,-10.844 -0.602,-16.051 -0.032,-14.63 2.452,-26.756 17.785,-33.351 3.359,-1.444 3.883,-4.609 1.168,-7.06 -13.873,-12.519 -44.235,2.526 -53.773,25.528 -8.515,20.537 9.199,47.477 -21.703,56.623 -13.679,4.049 -21.563,13.417 -27.977,25.053 l -25.75,-112.993 c -1.259,-5.525 -9.547,-3.636 -8.288,1.889 l 1.564,6.859 -0.068,0.272 -29.023,130.127 -0.9,-0.767 c -17.104,-14.724 -11.65,-16.231 -13.953,-37.609 -2.761,-25.624 -11.3,-40.552 -30.346,-55.309 -17.161,-13.297 -26.489,-24.978 -25.137,-49.029 1.138,-20.217 -41.238,24.046 -12.503,66.157 6.086,8.921 14.452,16.25 20.162,25.335 10.759,17.118 -10.445,31.264 -4.894,58.811 l -89.282,-63.996 c -4.463,-3.199 -8.819,0.631 -6.219,5.467 l 61.803,114.932 c -16.793,-8.482 -21.454,1.625 -32.806,-14.552 -17.923,-25.54 -28.572,-29.186 -58.787,-24.538 -16.86,2.594 -30.273,3.504 -37.739,-16.351 -1.7,-4.52 -6.069,-4.587 -7.908,-0.122 -9.767,23.722 6.561,54.119 35.93,54.119 25.419,0 29.414,0.282 36.241,19.662 4.879,13.849 16.233,24.51 32.596,29.641 -46.328,8.387 -107.662,20.528 -107.662,20.528 -5.371,1.062 -5.582,6.81 -0.305,8.265 l 131.486,36.273 -0.483,0.543 c -22.983,25.701 -37.245,5.617 -65.654,18.729 -23.729,10.951 -24.996,25.168 -37.537,44.55 -6.616,10.225 -19.294,8.772 -27.508,3.068 -4.361,-3.029 -8.454,0.345 -6.313,5.204 7.199,16.337 27.332,29.478 48.963,15.345 19.132,-12.499 19.282,-33.425 49.629,-27.634 17.411,3.323 29.992,6.394 42.58,2.876 l -60.126,95.18 c -2.938,4.652 1.18,8.79 5.846,5.874 l 115.717,-72.324 c 7.764,34.153 -40.73,26.919 -37.029,82.359 1.636,24.514 12.195,51.83 -20.859,61.274 -17.199,4.914 22.012,24.333 48.992,-9.514 14.143,-17.744 6.495,-51.039 17.354,-59.849 9.584,-7.776 21.728,-11.384 31.527,-18.831 5.583,-4.242 10.111,-9.523 12.776,-16.765 4.929,31.955 13.941,87.125 21.657,116.621 1.319,5.04 6.386,5.252 8.12,0.339 7.444,-21.093 27.688,-105.616 34.561,-134.619 17.08,10.913 18.5,20.347 15.958,42.98 -3.053,27.164 8.616,43.363 33.166,56.943 21.445,11.864 24.16,19.764 14.593,44.498 -1.778,4.599 1.614,7.604 5.964,5.284 C 49.867,411.25 59.328,377.84 45.003,359.217 35.285,346.584 17.848,335.345 21.79,316.949 c 5.441,-25.398 9.572,-38.75 -0.959,-55.707 26.232,18.407 69.702,48.828 92.165,64.083 4.62,3.137 8.99,-1.137 5.956,-5.825 C 107.288,301.474 61.067,227.653 47.347,205.725 l 0.787,-0.114 c 27.387,-3.86 24.576,2.561 41.962,19.803 11.17,11.076 27.633,20.968 61.084,18.634 27.541,-1.921 30.092,0.644 39.574,16.221 2.698,4.433 7.577,3.214 7.873,-1.968 1.622,-28.386 -11.508,-49.492 -48.743,-49.492 -24.201,0 -27.033,-11.908 -36.485,-29.971 -2.844,-5.436 -12.68,-18.165 -28.655,-24.653 24.73,-5.67 72.204,-16.525 105.567,-23.978 5.368,-1.2 5.398,-7.032 0.042,-8.286 C 143.681,110.993 93.029,98.969 69.916,93.471 82.513,85.5 84.247,67.13 106.615,68.55 c 26.007,1.651 49.622,-6.262 57.319,-30.452 6.387,-20.075 14.126,-26.415 37.859,-21.623 5.189,1.047 7.608,-3.628 3.756,-7.259 -23.283,-21.945 -49.273,-19.356 -64.091,0.828 -28.445,38.745 -41.116,0.883 -80.047,10.743 19.544,-29.514 46.881,-70.981 57.329,-87.728 2.901,-4.651 -1.166,-8.743 -5.834,-5.87 C 67.113,-44.631 18.872,-12.625 0,0"
           style="fill:#000000;fill-opacity:1;fill-rule:nonzero;stroke:#ffffff;stroke-width:1.80716;stroke-linecap:butt;stroke-linejoin:round;stroke-miterlimit:4;stroke-dasharray:none;stroke-dashoffset:0;stroke-opacity:1"
           id="path144" />
      </g>
      <g
         style="fill:#000000;fill-opacity:1;stroke:#ffffff;stroke-width:1.80716;stroke-linecap:butt;stroke-linejoin:round;stroke-miterlimit:4;stroke-dasharray:none;stroke-dashoffset:0;stroke-opacity:1"
         id="g146"
         transform="translate(225.2295,421.4199)">
        <path
           d="m 0,0 c 6.363,3.667 13.039,6.854 19.977,9.512 -1.043,46.366 -53.069,27.386 -49.478,81.255 0.839,12.599 2.583,21.676 -0.433,34.435 -0.843,3.568 4.509,4.833 5.353,1.265 3.161,-13.375 1.447,-22.876 0.567,-36.066 -3.3,-49.514 47.187,-30.786 49.43,-78.933 4.047,1.362 8.176,2.546 12.378,3.543 6.101,49.563 -42.779,34.635 -51.138,67.333 -3.71,14.512 -1.373,35.594 -10.737,47.341 -7.85,9.848 -16.208,13.965 -23.724,15.343 33.33,-25.086 -10.223,-71.076 25.6,-102.499 C -7.521,29.648 4.371,20.537 0,0 m -30.097,-23.22 c 5.743,5.809 11.986,11.124 18.658,15.874 l -95.012,59.383 z m -16.124,-19.507 c 3.75,5.462 7.873,10.648 12.333,15.521 l -70.09,69.082 48.607,-76.945 c 2.942,-2.089 5.975,-4.619 9.15,-7.658 M -58.616,-64.77 c 2.285,5.081 4.86,10.002 7.705,14.744 -39.45,38.69 -67.063,-13.872 -101.135,25.005 l -1.149,1.327 c 1.008,-10.667 9.612,-33.242 49.227,-26.511 22.389,3.804 31.739,-1.617 45.352,-14.565 m -7.562,-21.217 c 1.449,5.403 3.211,10.677 5.263,15.803 -13.15,12.764 -20.816,18.178 -42.132,14.557 -49.825,-8.466 -57.942,27.079 -55.321,37.897 -2.547,2.795 -5.264,5.415 -8.464,7.506 -10.782,7.044 -21.103,5.212 -28.431,-0.817 32.667,4.787 26.48,-37.49 59.036,-52.516 28.791,-13.288 44.669,9.206 70.049,-22.43 m 10.28,-100.525 c -2.123,4.206 -4.042,8.533 -5.745,12.968 -8.822,-8.466 -20.608,-4.471 -30.988,-9.131 -11.789,-5.293 -16.553,-24.312 -26.416,-32.144 -9.026,-7.167 -21.163,-12.363 -40.036,-11.846 -10.714,0.294 -15.39,0.965 -24.723,-4.837 -3.114,-1.935 -6.017,2.735 -2.903,4.672 10.523,6.541 16.31,5.976 27.777,5.663 15.918,-0.436 32.709,3.409 41.974,17.188 9.087,13.512 13.205,26.199 31.532,28.89 7.708,1.132 16.355,0.535 21.673,7.429 -0.723,2.166 -1.395,4.355 -2.015,6.567 -31.109,2.658 -50.036,-10.11 -55.981,-26.985 -8.673,-24.62 -17.677,-25.338 -44.258,-25.338 -18.452,0 -30.616,-15.69 -30.288,-31.663 23.099,31.616 59.965,-11.688 87.196,25.338 6.083,8.271 11.842,19.971 23.893,19.825 10.392,-0.127 22.182,5.489 29.308,13.404 m 88.623,-72.778 c -6.977,1.933 -13.738,4.386 -20.238,7.315 -29.935,-34.759 6.723,-58.673 -28.024,-94.359 -7.232,-7.428 -15.373,-14.523 -18.056,-25.014 -0.909,-3.551 -6.238,-2.189 -5.329,1.364 3.036,11.866 11.334,19.157 19.444,27.487 32.363,33.237 -3.307,56.725 26.824,92.965 -4.588,2.295 -9.034,4.832 -13.322,7.594 l -13.42,-9.62 c -0.083,-0.262 -0.192,-0.53 -0.332,-0.8 0,0 -0.53,-1.054 -1.191,-2.925 -12.084,-34.191 22.197,-43.715 -2.465,-74.06 -5.288,-6.507 -11.12,-12.517 -15.863,-19.469 -12.455,-18.252 -9.531,-36.078 -2.646,-48.763 3.037,25.215 17.029,33.721 34.061,47.885 29.818,24.795 16.971,63.967 25.959,75.62 0.992,1.285 8.122,9.819 14.598,14.78 m 33.065,-5.045 c -7.407,0.248 -14.669,1.064 -21.745,2.407 l 23.424,-105.019 z m 30.826,2.3 c -8.215,-1.524 -16.678,-2.339 -25.324,-2.379 l 1.66,-101.46 z m 42.93,15.495 c -4.555,-2.543 -9.266,-4.842 -14.113,-6.878 -2.443,-7.373 -3.086,-26.49 10.616,-38.424 18.296,-15.935 34.424,-21.336 30.917,-51.424 -1.215,-10.424 -6.612,-25.331 3.026,-33.278 2.829,-2.333 -0.67,-6.576 -3.499,-4.244 -20.296,16.735 9.602,46.401 -14.85,69.335 -5.975,5.603 -13.017,10.072 -19.206,15.464 -13.725,11.953 -15.04,29.764 -13.233,40.127 -4.373,-1.597 -8.847,-2.985 -13.41,-4.151 l -4.697,-20.613 c 6.298,-13.345 12.873,-25.586 27.428,-29.895 15.746,-4.66 25.709,-16.059 25.592,-33.642 -0.061,-9.366 -2.186,-18.86 1.551,-27.875 6.829,-16.471 22.56,-24.306 32.682,-24.554 -11.936,8.989 -14.244,22.37 -14.213,36.201 0.06,27.197 3.602,47.849 -21.991,67.611 -21.228,16.39 -6.285,29.784 -12.6,46.24 m 26.951,19.514 c -5.378,-4.951 -11.141,-9.49 -17.237,-13.568 11.784,-7.914 50.568,-33.822 92.149,-60.071 z m 18.318,20.454 c -4.348,-5.917 -9.145,-11.485 -14.341,-16.651 l 72.121,-70.895 c -14.831,22.738 -33.85,51.486 -46.598,70.707 -0.784,0.655 -1.246,1.411 -1.449,2.185 z m 12.608,20.638 c -2.247,-4.503 -4.727,-8.87 -7.423,-13.085 1.869,-2.808 6.312,-9.49 12.217,-18.391 0.384,-0.247 0.9,-0.562 1.545,-0.913 36.466,-19.938 58.921,29.984 93.656,-17.327 9.014,-12.277 23.511,-16.887 39.276,-8.558 -6.794,0.187 -11.814,1.719 -15.701,4.155 -12.523,-7.103 -27.904,23.752 -36.15,29.937 -18.149,13.611 -48.59,-2.587 -72.114,11.595 -5.705,3.439 -10.558,7.972 -15.306,12.587 m 9.264,23.735 c -1.836,-6.354 -4.106,-12.524 -6.775,-18.477 28.457,-27.526 30.295,-15.492 67.283,-18.31 23.263,-1.773 26.221,-12.522 38.959,-28.128 1.55,-1.9 5.703,-7.338 9.474,-8.312 -13.929,16.009 -8.983,47.967 -59.366,44.769 -32.985,-2.094 -30.198,27.309 -49.575,28.458 m 5.405,32.819 c -0.334,-7.294 -1.22,-14.443 -2.616,-21.409 14.045,3.345 54.497,12.964 97.345,23.052 -28.846,-0.491 -81.768,-1.394 -94.729,-1.643 m -1.609,28.972 c 1.159,-7.29 1.759,-14.766 1.759,-22.383 l -0.004,-1.085 c 13.636,0.261 67.699,1.183 95.991,1.664 -43.632,9.871 -92.689,21.154 -92.689,21.154 -0.546,0.126 -1.019,0.32 -1.424,0.566 -1.191,-0.011 -2.401,0.016 -3.633,0.084 m -16.476,47.186 c 2.75,-4.867 5.22,-9.913 7.389,-15.116 8.58,-4.642 29.978,-2.757 39.736,13.582 19.805,33.162 28.521,30.064 62.081,32.334 6.439,0.435 11.249,1.106 15.382,3.005 3.331,1.531 5.628,-3.467 2.296,-4.998 -10.608,-4.874 -29.093,-3.843 -40.826,-5.232 -17.625,-2.087 -23.525,-10.036 -34.211,-27.929 -9.766,-16.351 -29.465,-20.57 -41.832,-17.551 1.929,-5.399 3.54,-10.951 4.81,-16.63 26.404,-2.597 42.788,17.395 46.145,23.811 10.963,20.953 15.569,34.53 44.015,34.53 25.161,0 36.585,10.286 39.563,26.546 -20.082,-21.458 -61.155,7.466 -93.366,-24.477 -19.187,-19.028 -18.179,-26.546 -49.133,-22.184 -0.723,0.102 -1.407,0.206 -2.049,0.309 m -18.822,25.949 c 4.517,-4.943 8.689,-10.207 12.477,-15.755 7.774,12.424 33.884,54.143 53.334,85.009 z m -19.27,17.55 c 5.483,-4.143 10.656,-8.676 15.477,-13.557 l 69.047,72.66 C 208.165,27.008 166.806,-2.063 155.915,-9.723 m -21.268,13.29 c 4.173,-2.118 8.227,-4.438 12.15,-6.945 49.305,47.026 -7.263,63.037 26.488,101.198 4.688,5.299 9.766,10.236 14.089,15.855 5.361,6.971 6.254,17.399 3.69,27.187 -1.628,-17.477 -19.752,-34.138 -30.606,-45.718 -7.313,-7.803 -9.625,-13.849 -10.028,-25.041 -0.309,-8.57 0.691,-18.789 1.556,-31.33 0.915,-13.27 -9.267,-28.79 -17.339,-35.206 m -24.013,9.535 c 6.281,-1.847 12.382,-4.117 18.266,-6.778 6.065,2.891 18.495,19.08 17.599,32.071 -1.509,21.877 -6.402,43.068 9.946,60.51 8.533,9.103 23.723,22.97 27.996,37.172 -9.105,-26.126 -56.815,-22.743 -51.475,-70.268 2.425,-21.577 3.572,-36.704 -22.355,-52.611 z m -34.392,5.622 c 7.813,-0.305 15.463,-1.243 22.901,-2.764 0.367,0.522 0.888,0.992 1.586,1.367 -4.112,18.017 -15.37,65.403 -24.487,100.319 z m -5.624,0.11 0.125,119.22 -0.238,0.842 C 61.436,97.752 51.766,33.003 49.462,17.265 c 6.902,1.033 13.966,1.569 21.156,1.569 m 0,-7.5 c -26.546,0 -51.289,-7.711 -72.114,-21.016 -0.471,-0.491 -1.047,-0.878 -1.692,-1.099 -36.343,-23.994 -60.319,-65.202 -60.319,-112.01 0,-22.079 5.334,-42.912 14.785,-61.28 0.942,-0.688 1.588,-1.785 1.648,-3.102 30.187,-52.129 73.636,-69.229 117.692,-69.743 44.056,-0.514 86.759,23.253 110.903,58.668 0.194,0.429 0.462,0.822 0.786,1.167 14.174,21.268 22.435,46.814 22.435,74.29 0,74.076 -60.049,134.125 -134.124,134.125 m -175.63,-307.724 c 23.198,26.367 60.322,66.772 70.608,78.579 -6.168,6.814 -11.682,14.229 -16.443,22.149 z m 74.395,74.556 c -10.61,-12.13 -46.082,-50.758 -69.041,-76.796 l 86.249,61.821 c -6.133,4.528 -11.887,9.538 -17.208,14.975 m -144.359,94.518 103.978,2.827 -0.009,1.698 c 0,8.443 0.738,16.713 2.154,24.75 z m 104.148,-2.671 -101.658,-2.763 c 30.634,-5.941 76.997,-14.785 104.511,-19.335 -1.509,7.181 -2.476,14.562 -2.853,22.098"
           style="fill:#000000;fill-opacity:1;fill-rule:evenodd;stroke:#ffffff;stroke-width:1.80716;stroke-linecap:butt;stroke-linejoin:round;stroke-miterlimit:4;stroke-dasharray:none;stroke-dashoffset:0;stroke-opacity:1"
           id="path148" />
      </g>
    </g>
    <text
       transform="translate(0,-0.37797619)"
       id="text12"
       y="189.74405"
       x="68.791664"
       style="font-style:normal;font-weight:normal;font-size:10.5833px;line-height:1.25;font-family:'Times New Roman', serif;white-space:pre;inline-size:53.702;fill:#000000;fill-opacity:1;stroke:none;stroke-width:0.264583;-inkscape-font-specification:'Times New Roman, serif';font-stretch:normal;font-variant:normal;"
       xml:space="preserve"><tspan
         x="68.791664"
         y="189.74405"><tspan
           style="font-style:normal;font-variant:normal;font-weight:normal;font-stretch:normal;font-family:'Times New Roman', serif;-inkscape-font-specification:'Times New Roman, serif'">SUNNEE</tspan><tspan
           style="font-style:normal;font-variant:normal;font-weight:normal;font-stretch:normal;font-size:2.82222px;font-family:'Times New Roman', serif;-inkscape-font-specification:'Times New Roman, serif'"> </tspan><tspan
           style="font-style:normal;font-variant:normal;font-weight:normal;font-stretch:normal;font-family:'Times New Roman', serif;-inkscape-font-specification:'Times New Roman, serif';fill:#ffffff">D</tspan></tspan></text>
  </g>
</svg>
